<mxfile host="app.diagrams.net" modified="2023-10-16T06:37:48.528Z" agent="Mozilla/5.0 (Windows NT 10.0; Win64; x64) AppleWebKit/537.36 (KHTML, like Gecko) Chrome/117.0.0.0 Safari/537.36 Edg/117.0.2045.60" etag="UmEdrfRZqic1BEz-Ya5a" version="22.0.4" type="device">
  <diagram name="Page-1" id="Zhds4qJ5c7Odu2s9Zs-a">
    <mxGraphModel dx="2601" dy="1982" grid="1" gridSize="10" guides="1" tooltips="1" connect="1" arrows="1" fold="1" page="1" pageScale="1" pageWidth="827" pageHeight="1169" math="0" shadow="0">
      <root>
        <mxCell id="0" />
        <mxCell id="1" parent="0" />
        <mxCell id="CvS2M7HtoJCNQKC2x9Xb-1" value="Rameur" style="swimlane;whiteSpace=wrap;html=1;" parent="1" vertex="1">
          <mxGeometry x="100" y="490" width="200" height="200" as="geometry" />
        </mxCell>
        <mxCell id="CvS2M7HtoJCNQKC2x9Xb-6" value="&lt;ul&gt;&lt;li&gt;Login&lt;/li&gt;&lt;li&gt;MDP&lt;/li&gt;&lt;li&gt;Nom&lt;/li&gt;&lt;li&gt;Prénom&lt;/li&gt;&lt;li&gt;Téléphone&lt;/li&gt;&lt;li&gt;Mail&lt;/li&gt;&lt;/ul&gt;" style="text;strokeColor=none;fillColor=none;html=1;whiteSpace=wrap;verticalAlign=middle;overflow=hidden;" parent="CvS2M7HtoJCNQKC2x9Xb-1" vertex="1">
          <mxGeometry y="20" width="200" height="120" as="geometry" />
        </mxCell>
        <mxCell id="CvS2M7HtoJCNQKC2x9Xb-2" value="Entraîneur" style="swimlane;whiteSpace=wrap;html=1;" parent="1" vertex="1">
          <mxGeometry x="440" y="90" width="200" height="200" as="geometry" />
        </mxCell>
        <mxCell id="CvS2M7HtoJCNQKC2x9Xb-7" value="&lt;ul&gt;&lt;li style=&quot;border-color: var(--border-color);&quot;&gt;&lt;span style=&quot;background-color: initial;&quot;&gt;Login&lt;/span&gt;&lt;/li&gt;&lt;li style=&quot;border-color: var(--border-color);&quot;&gt;&lt;span style=&quot;background-color: initial;&quot;&gt;MDP&lt;/span&gt;&lt;/li&gt;&lt;li style=&quot;border-color: var(--border-color);&quot;&gt;&lt;span style=&quot;background-color: initial;&quot;&gt;Nom&lt;/span&gt;&lt;br&gt;&lt;/li&gt;&lt;li&gt;Prénom&lt;/li&gt;&lt;li&gt;Téléphone&lt;/li&gt;&lt;li&gt;Mail&lt;/li&gt;&lt;/ul&gt;" style="text;strokeColor=none;fillColor=none;html=1;whiteSpace=wrap;verticalAlign=middle;overflow=hidden;" parent="CvS2M7HtoJCNQKC2x9Xb-2" vertex="1">
          <mxGeometry y="20" width="200" height="120" as="geometry" />
        </mxCell>
        <mxCell id="CvS2M7HtoJCNQKC2x9Xb-3" value="Créneau" style="swimlane;whiteSpace=wrap;html=1;" parent="1" vertex="1">
          <mxGeometry x="-150" y="100" width="200" height="200" as="geometry" />
        </mxCell>
        <mxCell id="CvS2M7HtoJCNQKC2x9Xb-9" value="&lt;ul&gt;&lt;li style=&quot;border-color: var(--border-color);&quot;&gt;ID_Creneau&lt;/li&gt;&lt;li style=&quot;border-color: var(--border-color);&quot;&gt;Date&lt;/li&gt;&lt;li style=&quot;border-color: var(--border-color);&quot;&gt;Heure_Debut&lt;/li&gt;&lt;li style=&quot;border-color: var(--border-color);&quot;&gt;Heure_Fin&lt;/li&gt;&lt;li style=&quot;border-color: var(--border-color);&quot;&gt;Date_Creation&lt;/li&gt;&lt;li style=&quot;border-color: var(--border-color);&quot;&gt;Heure_Creation&lt;/li&gt;&lt;/ul&gt;&lt;div&gt;&lt;ul style=&quot;border-color: var(--border-color);&quot;&gt;&lt;li style=&quot;border-color: var(--border-color);&quot;&gt;Date_DernierModif&lt;/li&gt;&lt;li style=&quot;border-color: var(--border-color);&quot;&gt;Heure_DernierModif&lt;/li&gt;&lt;/ul&gt;&lt;/div&gt;" style="text;strokeColor=none;fillColor=none;html=1;whiteSpace=wrap;verticalAlign=middle;overflow=hidden;" parent="CvS2M7HtoJCNQKC2x9Xb-3" vertex="1">
          <mxGeometry y="30" width="200" height="164" as="geometry" />
        </mxCell>
        <mxCell id="CvS2M7HtoJCNQKC2x9Xb-4" value="Pirogue" style="swimlane;whiteSpace=wrap;html=1;" parent="1" vertex="1">
          <mxGeometry x="300" y="-170" width="200" height="200" as="geometry" />
        </mxCell>
        <mxCell id="CvS2M7HtoJCNQKC2x9Xb-8" value="&lt;ul&gt;&lt;li style=&quot;border-color: var(--border-color);&quot;&gt;ID_Priogue&lt;/li&gt;&lt;li style=&quot;border-color: var(--border-color);&quot;&gt;Place(s)&lt;/li&gt;&lt;li style=&quot;border-color: var(--border-color);&quot;&gt;Commentaire&lt;/li&gt;&lt;li style=&quot;border-color: var(--border-color);&quot;&gt;Etat&lt;/li&gt;&lt;li style=&quot;border-color: var(--border-color);&quot;&gt;Date_Creation&lt;/li&gt;&lt;li style=&quot;border-color: var(--border-color);&quot;&gt;Heure_Creation&lt;/li&gt;&lt;/ul&gt;&lt;div&gt;&lt;ul style=&quot;border-color: var(--border-color);&quot;&gt;&lt;li style=&quot;border-color: var(--border-color);&quot;&gt;Date_DernierModif&lt;/li&gt;&lt;li style=&quot;border-color: var(--border-color);&quot;&gt;Heure_DernierModif&lt;/li&gt;&lt;/ul&gt;&lt;/div&gt;" style="text;strokeColor=none;fillColor=none;html=1;whiteSpace=wrap;verticalAlign=middle;overflow=hidden;" parent="CvS2M7HtoJCNQKC2x9Xb-4" vertex="1">
          <mxGeometry y="25" width="200" height="165" as="geometry" />
        </mxCell>
        <mxCell id="CvS2M7HtoJCNQKC2x9Xb-5" value="Equipe" style="swimlane;whiteSpace=wrap;html=1;" parent="1" vertex="1">
          <mxGeometry x="740" y="490" width="200" height="200" as="geometry" />
        </mxCell>
        <mxCell id="CvS2M7HtoJCNQKC2x9Xb-10" value="&lt;ul&gt;&lt;li style=&quot;border-color: var(--border-color);&quot;&gt;ID_Equipe&lt;/li&gt;&lt;li style=&quot;border-color: var(--border-color);&quot;&gt;Nom&lt;/li&gt;&lt;li style=&quot;border-color: var(--border-color);&quot;&gt;Date_Creation&lt;/li&gt;&lt;li style=&quot;border-color: var(--border-color);&quot;&gt;Heure_Creation&lt;/li&gt;&lt;li style=&quot;border-color: var(--border-color);&quot;&gt;Date_DernierModif&lt;/li&gt;&lt;li style=&quot;border-color: var(--border-color);&quot;&gt;Heure_DernierModif&lt;/li&gt;&lt;/ul&gt;" style="text;strokeColor=none;fillColor=none;html=1;whiteSpace=wrap;verticalAlign=middle;overflow=hidden;" parent="CvS2M7HtoJCNQKC2x9Xb-5" vertex="1">
          <mxGeometry y="30" width="200" height="120" as="geometry" />
        </mxCell>
        <mxCell id="CvS2M7HtoJCNQKC2x9Xb-11" value="Membre" style="ellipse;whiteSpace=wrap;html=1;" parent="1" vertex="1">
          <mxGeometry x="440" y="535" width="190" height="110" as="geometry" />
        </mxCell>
        <mxCell id="TaAkFJ5V7adSZNvxT8OZ-1" value="1,N" style="text;html=1;strokeColor=none;fillColor=none;align=center;verticalAlign=middle;whiteSpace=wrap;rounded=0;" vertex="1" parent="1">
          <mxGeometry x="290" y="600" width="60" height="30" as="geometry" />
        </mxCell>
        <mxCell id="TaAkFJ5V7adSZNvxT8OZ-2" value="1,N" style="text;html=1;strokeColor=none;fillColor=none;align=center;verticalAlign=middle;whiteSpace=wrap;rounded=0;" vertex="1" parent="1">
          <mxGeometry x="680" y="600" width="60" height="30" as="geometry" />
        </mxCell>
        <mxCell id="TaAkFJ5V7adSZNvxT8OZ-4" value="" style="ellipse;whiteSpace=wrap;html=1;" vertex="1" parent="1">
          <mxGeometry x="50" y="-80" width="120" height="80" as="geometry" />
        </mxCell>
        <mxCell id="TaAkFJ5V7adSZNvxT8OZ-5" value="" style="endArrow=none;html=1;rounded=0;entryX=1;entryY=0.5;entryDx=0;entryDy=0;exitX=0;exitY=0.5;exitDx=0;exitDy=0;" edge="1" parent="1" source="CvS2M7HtoJCNQKC2x9Xb-8" target="TaAkFJ5V7adSZNvxT8OZ-4">
          <mxGeometry width="50" height="50" relative="1" as="geometry">
            <mxPoint x="450" y="190" as="sourcePoint" />
            <mxPoint x="500" y="140" as="targetPoint" />
          </mxGeometry>
        </mxCell>
        <mxCell id="TaAkFJ5V7adSZNvxT8OZ-6" value="" style="endArrow=none;html=1;rounded=0;entryX=0;entryY=1;entryDx=0;entryDy=0;" edge="1" parent="1" source="CvS2M7HtoJCNQKC2x9Xb-11" target="CvS2M7HtoJCNQKC2x9Xb-10">
          <mxGeometry width="50" height="50" relative="1" as="geometry">
            <mxPoint x="450" y="450" as="sourcePoint" />
            <mxPoint x="500" y="400" as="targetPoint" />
          </mxGeometry>
        </mxCell>
        <mxCell id="TaAkFJ5V7adSZNvxT8OZ-7" value="" style="endArrow=none;html=1;rounded=0;entryX=0;entryY=0.5;entryDx=0;entryDy=0;exitX=1;exitY=0.75;exitDx=0;exitDy=0;" edge="1" parent="1" source="CvS2M7HtoJCNQKC2x9Xb-1" target="CvS2M7HtoJCNQKC2x9Xb-11">
          <mxGeometry width="50" height="50" relative="1" as="geometry">
            <mxPoint x="450" y="450" as="sourcePoint" />
            <mxPoint x="500" y="400" as="targetPoint" />
          </mxGeometry>
        </mxCell>
        <mxCell id="TaAkFJ5V7adSZNvxT8OZ-8" value="" style="endArrow=none;html=1;rounded=0;entryX=0;entryY=0.5;entryDx=0;entryDy=0;exitX=0.5;exitY=0;exitDx=0;exitDy=0;" edge="1" parent="1" source="CvS2M7HtoJCNQKC2x9Xb-3" target="TaAkFJ5V7adSZNvxT8OZ-4">
          <mxGeometry width="50" height="50" relative="1" as="geometry">
            <mxPoint x="-130" y="40" as="sourcePoint" />
            <mxPoint x="-10" y="-100" as="targetPoint" />
          </mxGeometry>
        </mxCell>
        <mxCell id="TaAkFJ5V7adSZNvxT8OZ-9" value="1,N" style="text;html=1;strokeColor=none;fillColor=none;align=center;verticalAlign=middle;whiteSpace=wrap;rounded=0;" vertex="1" parent="1">
          <mxGeometry x="-90" y="70" width="60" height="30" as="geometry" />
        </mxCell>
        <mxCell id="TaAkFJ5V7adSZNvxT8OZ-10" value="0,1" style="text;html=1;strokeColor=none;fillColor=none;align=center;verticalAlign=middle;whiteSpace=wrap;rounded=0;" vertex="1" parent="1">
          <mxGeometry x="250" y="-90" width="60" height="30" as="geometry" />
        </mxCell>
        <mxCell id="TaAkFJ5V7adSZNvxT8OZ-11" value="Participe" style="ellipse;whiteSpace=wrap;html=1;" vertex="1" parent="1">
          <mxGeometry x="-110" y="410" width="120" height="80" as="geometry" />
        </mxCell>
        <mxCell id="TaAkFJ5V7adSZNvxT8OZ-12" value="" style="endArrow=none;html=1;rounded=0;entryX=0.5;entryY=1;entryDx=0;entryDy=0;exitX=0.5;exitY=0;exitDx=0;exitDy=0;" edge="1" parent="1" source="TaAkFJ5V7adSZNvxT8OZ-11" target="CvS2M7HtoJCNQKC2x9Xb-3">
          <mxGeometry width="50" height="50" relative="1" as="geometry">
            <mxPoint x="-180" y="440" as="sourcePoint" />
            <mxPoint x="-70" y="330" as="targetPoint" />
          </mxGeometry>
        </mxCell>
        <mxCell id="TaAkFJ5V7adSZNvxT8OZ-13" value="" style="endArrow=none;html=1;rounded=0;entryX=0.5;entryY=1;entryDx=0;entryDy=0;exitX=0;exitY=0.75;exitDx=0;exitDy=0;" edge="1" parent="1" source="CvS2M7HtoJCNQKC2x9Xb-6" target="TaAkFJ5V7adSZNvxT8OZ-11">
          <mxGeometry width="50" height="50" relative="1" as="geometry">
            <mxPoint x="-60" y="670" as="sourcePoint" />
            <mxPoint x="-40" y="550" as="targetPoint" />
          </mxGeometry>
        </mxCell>
        <mxCell id="TaAkFJ5V7adSZNvxT8OZ-14" value="0,N" style="text;html=1;strokeColor=none;fillColor=none;align=center;verticalAlign=middle;whiteSpace=wrap;rounded=0;" vertex="1" parent="1">
          <mxGeometry x="-60" y="300" width="60" height="30" as="geometry" />
        </mxCell>
        <mxCell id="TaAkFJ5V7adSZNvxT8OZ-15" value="1,N" style="text;html=1;strokeColor=none;fillColor=none;align=center;verticalAlign=middle;whiteSpace=wrap;rounded=0;" vertex="1" parent="1">
          <mxGeometry x="40" y="600" width="60" height="30" as="geometry" />
        </mxCell>
        <mxCell id="TaAkFJ5V7adSZNvxT8OZ-16" value="Tenu" style="ellipse;whiteSpace=wrap;html=1;" vertex="1" parent="1">
          <mxGeometry x="180" y="200" width="120" height="80" as="geometry" />
        </mxCell>
        <mxCell id="TaAkFJ5V7adSZNvxT8OZ-17" value="" style="endArrow=none;html=1;rounded=0;exitX=1;exitY=0.5;exitDx=0;exitDy=0;entryX=0;entryY=0.75;entryDx=0;entryDy=0;" edge="1" parent="1" source="TaAkFJ5V7adSZNvxT8OZ-16" target="CvS2M7HtoJCNQKC2x9Xb-2">
          <mxGeometry width="50" height="50" relative="1" as="geometry">
            <mxPoint x="410" y="240" as="sourcePoint" />
            <mxPoint x="460" y="190" as="targetPoint" />
          </mxGeometry>
        </mxCell>
        <mxCell id="TaAkFJ5V7adSZNvxT8OZ-18" value="" style="endArrow=none;html=1;rounded=0;entryX=0;entryY=0.5;entryDx=0;entryDy=0;exitX=1;exitY=0.5;exitDx=0;exitDy=0;" edge="1" parent="1" source="CvS2M7HtoJCNQKC2x9Xb-9" target="TaAkFJ5V7adSZNvxT8OZ-16">
          <mxGeometry width="50" height="50" relative="1" as="geometry">
            <mxPoint x="50" y="220" as="sourcePoint" />
            <mxPoint x="160" y="190" as="targetPoint" />
          </mxGeometry>
        </mxCell>
        <mxCell id="TaAkFJ5V7adSZNvxT8OZ-19" value="1,N" style="text;html=1;strokeColor=none;fillColor=none;align=center;verticalAlign=middle;whiteSpace=wrap;rounded=0;" vertex="1" parent="1">
          <mxGeometry x="380" y="210" width="60" height="30" as="geometry" />
        </mxCell>
        <mxCell id="TaAkFJ5V7adSZNvxT8OZ-21" value="1,N" style="text;html=1;strokeColor=none;fillColor=none;align=center;verticalAlign=middle;whiteSpace=wrap;rounded=0;" vertex="1" parent="1">
          <mxGeometry x="40" y="185" width="60" height="30" as="geometry" />
        </mxCell>
      </root>
    </mxGraphModel>
  </diagram>
</mxfile>
